<svg xmlns="http://www.w3.org/2000/svg">
<defs>
<font id="DaisyRoots" horiz-adv-x="900" >
  <font-face 
    font-family="Daisy Roots"
    font-weight="400"
    font-stretch="normal"
    units-per-em="2048"
    panose-1="2 0 5 0 0 0 0 0 0 0"
    ascent="1638"
    descent="-410"
    x-height="1000"
    cap-height="1600"
    bbox="-566 -600 1602 1900"
    underline-thickness="150"
    underline-position="-442"
    unicode-range="U+001D-007E"
  />
<missing-glyph horiz-adv-x="1700" 
d="M776 1602h36q385 0 648 -344q142 -215 142 -436v-46q0 -361 -330 -629q-223 -147 -446 -147h-36q-385 0 -648 344q-142 215 -142 436v46q0 361 330 629q223 147 446 147zM110 1010h5q789 -5 1244 -5h133q-108 303 -335 418q-159 96 -340 96h-37q-308 0 -537 -261
q-100 -130 -133 -248zM762 1437l32 -32l37 32q6 0 37 -37q-7 0 -33 -32v-5q0 -6 33 -32q0 7 32 32h4q7 0 32 -32v-4q0 -7 -32 -33h-4l-37 33l-28 -33q33 -34 33 -41l-37 -32l-37 32l-37 -32l-32 37l32 36q-28 33 -32 33l-36 -33q-6 0 -37 37l37 32l36 -32l32 37q-6 0 -32 32
q0 6 37 37zM794 1400l-32 -37l37 -32q0 3 27 32v5q0 7 -32 32zM794 1327l-32 -37q30 -28 32 -28q7 0 32 32q0 7 -32 33zM367 1157h14l32 -9v-10l-9 -13q-25 4 -37 4q-18 -4 -18 -27q0 -20 23 -28q29 9 32 9l14 -18q-16 -12 -42 -18q-59 10 -59 55q8 55 50 55zM427 1157h23
q9 -2 9 -9v-33h32v42h32v-106h-32v37h-32v-37h-32v106zM546 1157h74v-28h-51v-14h51v-18q0 -9 -9 -9l-10 4l-9 -4l-23 4v-13h46q9 -2 9 -9v-19h-87v97q1 9 9 9zM689 1157q59 -8 59 -51l-9 -36q9 -2 9 -10q0 -7 -18 -18q-12 9 -14 9q-25 -4 -37 -4q-38 0 -50 55q0 55 60 55z
M767 1157h13q10 -2 10 -9v-46q2 -28 13 -28h9q7 0 14 14v60l5 9l9 -5h5l9 5l4 -9v-56q-6 -45 -46 -45h-9q-41 0 -46 55v46q2 9 10 9zM877 1157h9l27 -5q9 5 14 5q9 -5 14 -5q9 5 14 5v-23q0 -9 -9 -9q-8 4 -19 4v-4l-9 4h-14v-14h51v-18q0 -9 -9 -9h-42v-14h14q5 0 5 5l9 -5
h9q5 0 5 5q8 -5 13 -5v-23h-23l-27 -4q-8 4 -23 4v-4q-9 4 -14 4v83zM978 1157l32 -5v5q55 -8 55 -37q-4 -32 -23 -32l28 -37l-10 -4h-18q-3 0 -37 36h-4v-18l4 -9l-9 -5h-27v5q0 9 4 9l-4 32l4 46h-4q4 14 9 14zM1079 1152h82v-18q0 -9 -9 -9h-41v-10h46v-27h-46v-14h50

<glyph glyph-name=".notdef" horiz-adv-x="1700" 
d="M776 1602h36q385 0 648 -344q142 -215 142 -436v-46q0 -361 -330 -629q-223 -147 -446 -147h-36q-385 0 -648 344q-142 215 -142 436v46q0 361 330 629q223 147 446 147zM110 1010h5q789 -5 1244 -5h133q-108 303 -335 418q-159 96 -340 96h-37q-308 0 -537 -261
q-100 -130 -133 -248zM762 1437l32 -32l37 32q6 0 37 -37q-7 0 -33 -32v-5q0 -6 33 -32q0 7 32 32h4q7 0 32 -32v-4q0 -7 -32 -33h-4l-37 33l-28 -33q33 -34 33 -41l-37 -32l-37 32l-37 -32l-32 37l32 36q-28 33 -32 33l-36 -33q-6 0 -37 37l37 32l36 -32l32 37q-6 0 -32 32
q0 6 37 37zM794 1400l-32 -37l37 -32q0 3 27 32v5q0 7 -32 32zM794 1327l-32 -37q30 -28 32 -28q7 0 32 32q0 7 -32 33zM367 1157h14l32 -9v-10l-9 -13q-25 4 -37 4q-18 -4 -18 -27q0 -20 23 -28q29 9 32 9l14 -18q-16 -12 -42 -18q-59 10 -59 55q8 55 50 55zM427 1157h23
q9 -2 9 -9v-33h32v42h32v-106h-32v37h-32v-37h-32v106zM546 1157h74v-28h-51v-14h51v-18q0 -9 -9 -9l-10 4l-9 -4l-23 4v-13h46q9 -2 9 -9v-19h-87v97q1 9 9 9zM689 1157q59 -8 59 -51l-9 -36q9 -2 9 -10q0 -7 -18 -18q-12 9 -14 9q-25 -4 -37 -4q-38 0 -50 55q0 55 60 55z
M767 1157h13q10 -2 10 -9v-46q2 -28 13 -28h9q7 0 14 14v60l5 9l9 -5h5l9 5l4 -9v-56q-6 -45 -46 -45h-9q-41 0 -46 55v46q2 9 10 9zM877 1157h9l27 -5q9 5 14 5q9 -5 14 -5q9 5 14 5v-23q0 -9 -9 -9q-8 4 -19 4v-4l-9 4h-14v-14h51v-18q0 -9 -9 -9h-42v-14h14q5 0 5 5l9 -5
h9q5 0 5 5q8 -5 13 -5v-23h-23l-27 -4q-8 4 -23 4v-4q-9 4 -14 4v83zM978 1157l32 -5v5q55 -8 55 -37q-4 -32 -23 -32l28 -37l-10 -4h-18q-3 0 -37 36h-4v-18l4 -9l-9 -5h-27v5q0 9 4 9l-4 32l4 46h-4q4 14 9 14zM1079 1152h82v-18q0 -9 -9 -9h-41v-10h46v-27h-46v-14h50
v-18q0 -9 -9 -9h-64q-9 0 -9 9v96zM1175 1152h55q42 0 46 -55q0 -48 -73 -50h-19q-9 0 -9 9v96zM661 1097q6 -23 32 -23q23 7 23 32q-9 21 -18 23h-19q-18 -7 -18 -32zM1001 1129v-23h23q9 0 9 9v5q0 9 -9 9h-23zM1207 1125v-51h5q25 0 32 18v19q0 6 -14 14h-23zM239 780v-9
q15 -78 73 -78h46q23 12 23 37v18q-18 0 -18 23q0 46 87 46q0 6 18 9v-4q-86 -285 -110 -290h-9q-11 0 -14 23q0 9 23 51q-23 41 -60 41h-13q-74 -10 -74 -73v-9q0 -67 83 -97q24 -4 46 -4h18q144 0 188 197q28 61 97 262q-23 13 -60 13h-28q-36 0 -68 -41q-59 -26 -179 -41
q-69 -24 -69 -74zM913 528l-4 9v14q0 21 37 156q-12 46 -51 46h-32q-20 0 -73 -23v9l4 9q-18 9 -50 9h-46q-41 0 -55 -50q-74 -227 -74 -239q28 -14 78 -14q69 0 69 69q47 152 64 152q14 0 14 4q18 -7 18 -13q-41 -107 -41 -143v-9q0 -45 64 -55q47 0 124 41l-9 -27
q18 -19 64 -19q78 0 78 37q25 184 88 184h13q10 -2 10 -9v-5q0 -31 -60 -60l-5 -23q0 -119 97 -119q100 0 165 124l-18 14h-10q-40 -69 -91 -69h-9q-28 11 -28 41v19l64 41q23 42 23 64v9q0 48 -69 55q-18 0 -96 -27q0 4 -5 4q69 177 69 184q-22 14 -69 14h-41
q-35 0 -46 -78q-12 -14 -92 -271q-51 -55 -69 -55zM239 358v-5q232 -270 546 -270h37q287 0 514 234q27 31 27 36q-576 5 -858 5h-266zM592 280h46v-9h-37v-23h37v-9h-37v-19h32q10 -1 10 -9h-51v69zM666 280h23q6 0 13 -14h-4l-28 5q-9 -2 -9 -9v-10q46 -4 46 -22
q-7 -23 -32 -23q-28 9 -28 18l9 5q0 -11 23 -14l19 9q0 14 -46 23v18q0 7 14 14zM707 280h55v-9h-23v-60h-9v60h-23v9zM822 280q13 0 27 -18q0 -22 -46 -28l-4 -9q1 -9 9 -9h37v-9h-33l-22 4v5q0 32 32 32h13q0 5 5 14l-14 9h-14l-18 -14v9q5 14 28 14zM886 280h5
q7 0 18 -18v-37q-8 -18 -32 -18q-23 6 -23 32v9q0 32 32 32zM941 280v-64h14q0 -9 -9 -9h-23v9h9v50h-9v9q10 0 18 5zM964 280h41q9 -1 9 -9h-41v-19h28q9 -2 18 -22q-6 -23 -32 -23q-23 3 -23 13v10l18 -14h14q7 0 14 14q0 6 -14 13h-32v37zM863 257v-27q0 -7 14 -14h9
q7 0 14 14v27q0 7 -14 14h-9q-7 0 -14 -14z" />
    <glyph glyph-name=".null" horiz-adv-x="0" 
 />
    <glyph glyph-name=".null" horiz-adv-x="0" 
 />
    <glyph glyph-name="nonmarkingreturn" horiz-adv-x="508" 
 />
    <glyph glyph-name="space" unicode=" " horiz-adv-x="400" 
 />
    <glyph glyph-name="space" unicode="&#xa0;" horiz-adv-x="400" 
 />
    <glyph glyph-name="exclam" unicode="!" horiz-adv-x="300" 
d="M200 1700v-1300h-200v1100zM200 200v-200h-200v200h200z" />
    <glyph glyph-name="quotedbl" unicode="&#x22;" horiz-adv-x="600" 
d="M0 1600l100 100l100 -100q0 -400 -100 -600q-100 200 -100 600zM300 1600l100 100l100 -100q0 -400 -100 -600q-100 200 -100 600z" />
    <glyph glyph-name="numbersign" unicode="#" 
d="M100 500v600h-100l-200 200h300v300h200v-300h200v300h200v-300h100v-200h-100v-600h100v-200h-100v-200l-200 -200v400h-200v-300h-200v300h-100l-200 200h300zM300 1100v-600h200v600h-200z" />
    <glyph glyph-name="dollar" unicode="$" 
d="M0 1200q0 166 117 283q80 80 183 105v112l200 200v-312q103 -25 183 -105q117 -117 117 -283l-200 -200v200q0 83 -58 142q-20 19 -42 32v-519q300 -185 300 -455q0 -166 -117 -283q-80 -80 -183 -105v-112l-200 -200v312q-103 25 -183 105q-117 117 -117 283l200 200
v-200q0 -83 59 -141q19 -20 41 -33v519q-300 185 -300 455zM500 226q22 13 42 33q58 58 58 141q0 92 -100 193v-367zM300 1374q-22 -13 -41 -32q-59 -59 -59 -142q0 -92 100 -193v367z" />
    <glyph glyph-name="percent" unicode="%" horiz-adv-x="800" 
d="M300 1200q41 0 70.5 29.5t29.5 70.5t-29.5 70.5t-70.5 29.5t-70.5 -29.5t-29.5 -70.5t29.5 -70.5t70.5 -29.5zM400 200q41 0 70.5 29.5t29.5 70.5t-29.5 70.5t-70.5 29.5q-42 0 -71 -29.5t-29 -70.5t29 -70.5t71 -29.5zM328 1001q-14 -1 -28 -1q-124 0 -212 88t-88 212
t88 212t212 88t212 -88q10 -10 19 -20l49 118l300 190l-501 -1201q11 1 21 1q124 0 212 -88t88 -212t-88 -212t-212 -88t-212 88q-8 8 -15 16l-43 -103l-300 -201z" />
    <glyph glyph-name="ampersand" unicode="&#x26;" horiz-adv-x="800" 
d="M700 170l200 -230l-500 50q-166 10 -283 127t-117 283v100q0 166 117 283q9 9 18 17q-9 8 -18 17q-117 117 -117 283v100q0 166 117 283t283 127l300 40l-200 -230l-100 -10q-83 -10 -141.5 -68.5t-58.5 -141.5v-100q0 -83 58.5 -141.5t141.5 -58.5h100v200l200 200
v-1130zM500 700h-100q-83 0 -141.5 -58.5t-58.5 -141.5v-100q0 -83 58.5 -141.5t141.5 -68.5l100 -7v517z" />
    <glyph glyph-name="quotesingle" unicode="'" horiz-adv-x="300" 
d="M0 1600l100 100l100 -100q0 -400 -100 -600q-100 200 -100 600z" />
    <glyph glyph-name="parenleft" unicode="(" horiz-adv-x="500" 
d="M0 1300q0 166 117 283t283 117v-200q-83 0 -141.5 -58.5t-58.5 -141.5v-1000q0 -83 58.5 -141.5t141.5 -58.5v-200q-166 0 -283 117t-117 283v1000z" />
    <glyph glyph-name="parenright" unicode=")" horiz-adv-x="500" 
d="M400 1300v-1000q0 -166 -117 -283t-283 -117v200q83 0 141.5 58.5t58.5 141.5v1000q0 83 -58.5 141.5t-141.5 58.5v200q166 0 283 -117t117 -283z" />
    <glyph glyph-name="asterisk" unicode="*" horiz-adv-x="700" 
d="M201 1522q-1 38 -1 78l100 100l100 -100q0 -40 -1 -78q33 20 68 40l136 -37l-36 -137q-53 -31 -103 -57q88 -79 139 -156q-103 6 -232 52q-25 -135 -71 -227q-46 92 -71 227q-129 -46 -232 -52q51 77 139 156q-50 26 -103 57l-36 137l136 37q35 -20 68 -40z" />
    <glyph glyph-name="plus" unicode="+" horiz-adv-x="800" 
d="M250 600h-250v200h250v250h200v-250h350l-200 -200h-150v-350l-200 200v150z" />
    <glyph glyph-name="comma" unicode="," horiz-adv-x="300" 
d="M0 200l100 100l100 -100q0 -400 -100 -600q-100 200 -100 600z" />
    <glyph glyph-name="hyphen" unicode="-" horiz-adv-x="800" 
d="M0 600v200h800l-200 -200h-600z" />
    <glyph glyph-name="hyphen" unicode="&#xad;" horiz-adv-x="800" 
d="M0 600v200h800l-200 -200h-600z" />
    <glyph glyph-name="period" unicode="." horiz-adv-x="300" 
d="M100 0q-41 0 -70.5 29.5t-29.5 70.5t29.5 70.5t70.5 29.5t70.5 -29.5t29.5 -70.5t-29.5 -70.5t-70.5 -29.5z" />
    <glyph glyph-name="slash" unicode="/" horiz-adv-x="800" 
d="M600 1610l300 190l-750 -1799l-300 -201z" />
    <glyph glyph-name="zero" unicode="0" 
d="M200 1200v-800q0 -83 58.5 -141.5t141.5 -58.5t141.5 58.5t58.5 141.5v800q0 83 -58.5 141.5t-141.5 58.5t-141.5 -58.5t-58.5 -141.5zM0 400v800q0 166 117 283t283 117t283 -117t117 -283v-800q0 -166 -117 -283t-283 -117t-283 117t-117 283z" />
    <glyph glyph-name="one" unicode="1" horiz-adv-x="300" 
d="M0 1600h200v-1700l-200 200v1500z" />
    <glyph glyph-name="two" unicode="2" 
d="M200 1200v-200l-200 200q0 166 117 283t283 117t283 -117t117 -283q0 -270 -300 -455t-300 -345v-200h400v400l200 -200v-400h-800v400q0 270 300 455t300 345q0 83 -58.5 141.5t-141.5 58.5t-141.5 -58.5t-58.5 -141.5z" />
    <glyph glyph-name="three" unicode="3" horiz-adv-x="800" 
d="M300 1410l-300 20l-200 230l500 -50q166 -10 283 -127t117 -283v-100q0 -166 -117 -283q-9 -9 -18 -17q9 -8 18 -17q117 -117 117 -283v-100q0 -166 -117 -283t-283 -127l-500 -50l200 230l300 20q83 10 141.5 68.5t58.5 141.5v100q0 83 -58.5 141.5t-141.5 58.5h-100
l-200 200h300q83 0 141.5 58.5t58.5 141.5v100q0 83 -58.5 141.5t-141.5 68.5z" />
    <glyph glyph-name="four" unicode="4" 
d="M700 800h200l-200 -200v-500l-200 -200v700h-500v870l-200 230l400 -60v-840h300v800h200v-800z" />
    <glyph glyph-name="five" unicode="5" 
d="M800 400q0 -166 -117 -283t-283 -117t-283 117t-117 283h200q0 -83 58.5 -141.5t141.5 -58.5t141.5 58.5t58.5 141.5v300q0 83 -58.5 141.5t-141.5 58.5t-141 -58q-41 -41 -54 -94l-5 -148l-200 100l100 900h800l-200 -200h-422l-37 -331q73 31 159 31q166 0 283 -117
t117 -283v-300z" />
    <glyph glyph-name="six" unicode="6" 
d="M200 800v-400q0 -83 58.5 -141.5t141.5 -58.5t141.5 58.5t58.5 141.5v200q0 83 -58.5 141.5t-141.5 58.5h-200zM0 1200q0 166 117 283t283 117t283 -117q54 -54 83 -117l-166 -166q0 83 -58.5 141.5t-141.5 58.5t-141.5 -58.5t-58.5 -142.5v-399l200 200q166 0 283 -117
t117 -283v-200q0 -166 -117 -283t-283 -117t-283 117t-117 283v800z" />
    <glyph glyph-name="seven" unicode="7" horiz-adv-x="800" 
d="M500 1410l-500 60l-200 230l1000 -100l-550 -1399l-300 -201z" />
    <glyph glyph-name="eight" unicode="8" 
d="M400 900q83 0 141.5 58.5t58.5 141.5v100q0 83 -58.5 141.5t-141.5 58.5t-141.5 -58.5t-58.5 -141.5v-100q0 -83 58.5 -141.5t141.5 -58.5zM200 500v-100q0 -83 58.5 -141.5t141.5 -58.5t141.5 58.5t58.5 141.5v100q0 83 -58.5 141.5t-141.5 58.5t-141.5 -58.5
t-58.5 -141.5zM0 400v100q0 166 117 283q9 9 18 17q-9 8 -18 17q-117 117 -117 283v100q0 166 117 283t283 117t283 -117t117 -283v-100q0 -166 -117 -283q-9 -9 -18 -17q9 -8 18 -17q117 -117 117 -283v-100q0 -166 -117 -283t-283 -117t-283 117t-117 283z" />
    <glyph glyph-name="nine" unicode="9" 
d="M600 800v400q0 83 -58.5 141.5t-141.5 58.5t-141.5 -58.5t-58.5 -141.5v-200q0 -83 58.5 -141.5t141.5 -58.5h200zM800 400q0 -166 -117 -283t-283 -117t-283 117q-54 54 -83 117l166 166q0 -83 58.5 -141.5t141.5 -58.5t141.5 58.5t58.5 142.5v399l-200 -200
q-166 0 -283 117t-117 283v200q0 166 117 283t283 117t283 -117t117 -283v-800z" />
    <glyph glyph-name="colon" unicode=":" horiz-adv-x="300" 
d="M100 0q-41 0 -70.5 29.5t-29.5 70.5t29.5 70.5t70.5 29.5t70.5 -29.5t29.5 -70.5t-29.5 -70.5t-70.5 -29.5zM100 800q-41 0 -70.5 29.5t-29.5 70.5t29.5 70.5t70.5 29.5t70.5 -29.5t29.5 -70.5t-29.5 -70.5t-70.5 -29.5z" />
    <glyph glyph-name="semicolon" unicode=";" horiz-adv-x="300" 
d="M0 200l100 100l100 -100q0 -400 -100 -600q-100 200 -100 600zM100 800q-41 0 -70.5 29.5t-29.5 70.5t29.5 70.5t70.5 29.5t70.5 -29.5t29.5 -70.5t-29.5 -70.5t-70.5 -29.5z" />
    <glyph glyph-name="semicolon" unicode="&#x37e;" horiz-adv-x="300" 
d="M0 200l100 100l100 -100q0 -400 -100 -600q-100 200 -100 600zM100 800q-41 0 -70.5 29.5t-29.5 70.5t29.5 70.5t70.5 29.5t70.5 -29.5t29.5 -70.5t-29.5 -70.5t-70.5 -29.5z" />
    <glyph glyph-name="less" unicode="&#x3c;" horiz-adv-x="500" 
d="M0 1300q0 166 117 283t283 117v-200q-83 0 -141.5 -58.5t-58.5 -141.5v-1000q0 -83 58.5 -141.5t141.5 -58.5v-200q-166 0 -283 117t-117 283v1000z" />
    <glyph glyph-name="equal" unicode="=" horiz-adv-x="800" 
d="M0 500v200h800l-200 -200h-600zM0 800v200h800l-200 -200h-600z" />
    <glyph glyph-name="greater" unicode="&#x3e;" horiz-adv-x="500" 
d="M400 1300v-1000q0 -166 -117 -283t-283 -117v200q83 0 141.5 58.5t58.5 141.5v1000q0 83 -58.5 141.5t-141.5 58.5v200q166 0 283 -117t117 -283z" />
    <glyph glyph-name="question" unicode="?" 
d="M200 400q0 270 200 455t200 345q0 83 -58.5 141.5t-141.5 58.5t-141.5 -58.5t-58.5 -141.5v-200l-200 200q0 166 117 283t283 117t283 -117t117 -283q0 -240 -200 -440t-200 -360h-200zM400 200v-200h-200v200h200z" />
    <glyph glyph-name="at" unicode="@" 
d="M200 400q0 -83 58.5 -141.5t141.5 -58.5t142 59q34 34 48 78l191 -64q-29 -87 -98 -156q-117 -117 -283 -117t-283 117t-117 283v400q0 166 117 283t283 117t283 -117t117 -283v-300h-300v-100q0 -42 -29.5 -71t-70.5 -29t-70.5 29t-29.5 71v400q0 41 29.5 70.5
t70.5 29.5t70.5 -29.5t29.5 -70.5v-100h100v100q0 83 -58.5 141.5t-141.5 58.5t-141.5 -58.5t-58.5 -141.5v-400z" />
    <glyph glyph-name="A" unicode="A" 
d="M600 600h-245l-291 -964l-250 -134l332 1098h-146l-200 200h406l202 669l-8 1l-200 230l600 -100v-1500l-200 -200v700zM415 800h185v613z" />
    <glyph glyph-name="B" unicode="B" 
d="M200 800h200q83 0 141.5 58.5t58.5 141.5v200q0 83 -58.5 141.5t-141.5 68.5l-200 30v-640zM200 600v-500l-165 -165l365 55q83 10 141.5 68.5t58.5 141.5v200q0 83 -58.5 141.5t-141.5 58.5h-200zM0 -70v670l-200 200h200v670l-200 230l600 -90q166 -10 283 -127
t117 -283v-200q0 -166 -117 -283q-9 -9 -18 -17q9 -8 18 -17q117 -117 117 -283v-200q0 -166 -117 -283t-283 -127l-600 -90z" />
    <glyph glyph-name="C" unicode="C" 
d="M600 400v300l200 -200v-100q0 -166 -117 -283t-283 -117t-283 117t-117 283v800q0 166 117 283t283 117t283 -117t117 -283v-100l-200 -200v300q0 83 -58.5 141.5t-141.5 58.5t-141.5 -58.5t-58.5 -141.5v-800q0 -83 58.5 -141.5t141.5 -58.5t141.5 58.5t58.5 141.5z" />
    <glyph glyph-name="D" unicode="D" 
d="M0 -70v1540l-200 230l600 -90q166 -10 283 -127t117 -283v-1000q0 -166 -117 -283t-283 -127l-600 -90zM200 1440v-1340l-165 -165l365 55q83 10 141.5 68.5t58.5 141.5v1000q0 83 -58.5 141.5t-141.5 68.5z" />
    <glyph glyph-name="E" unicode="E" 
d="M400 1610l600 90l-200 -230l-400 -60q-83 -10 -141.5 -68.5t-58.5 -141.5v-200q0 -83 58.5 -141.5t141.5 -58.5h400l-200 -200h-200q-83 0 -141.5 -58.5t-58.5 -141.5v-200q0 -83 58.5 -141.5t141.5 -68.5l400 -60l200 -230l-600 90q-166 10 -283 127t-117 283v200
q0 166 117 283q9 9 18 17q-9 8 -18 17q-117 117 -117 283v200q0 166 117 283t283 127z" />
    <glyph glyph-name="F" unicode="F" horiz-adv-x="700" 
d="M400 1610l600 90l-200 -230l-400 -60q-83 -10 -141.5 -68.5t-58.5 -141.5v-200q0 -83 58.5 -141.5t141.5 -58.5h400l-200 -200h-200q-83 0 -141.5 -58.5t-58.5 -141.5v-300l-200 -200v500q0 166 117 283q9 9 18 17q-9 8 -18 17q-117 117 -117 283v200q0 166 117 283
t283 127z" />
    <glyph glyph-name="G" unicode="G" 
d="M0 1200q0 166 117 283t283 117t283 -117q69 -69 98 -156l-191 -64q-14 44 -48 79q-59 58 -142 58t-141.5 -58.5t-58.5 -141.5v-800q0 -83 58.5 -141.5t141.5 -58.5t141.5 58.5t58.5 141.5v300h-300l200 200h300v-500q0 -166 -117 -283t-283 -117t-283 117t-117 283v800z
" />
    <glyph glyph-name="H" unicode="H" 
d="M200 600v-600h-200v600l-200 200h200v670l-200 230l400 -60v-840h400v800h200v-1500l-200 -200v700h-400z" />
    <glyph glyph-name="I" unicode="I" horiz-adv-x="300" 
d="M0 1600h200v-1700l-200 200v1500z" />
    <glyph glyph-name="J" unicode="J" 
d="M600 400v1100l200 200v-1300q0 -166 -117 -283t-283 -117t-283 117t-117 283v100l200 200v-300q0 -83 58.5 -141.5t141.5 -58.5t141.5 58.5t58.5 141.5z" />
    <glyph glyph-name="K" unicode="K" horiz-adv-x="800" 
d="M0 1470l-200 230l400 -60v-1040h46l396 1000h215l-453 -1145q297 -396 511 -510q215 -115 385 -85q-180 -280 -485 -90q-286 178 -612 630h-3v-300l-200 -200v500l-200 200h200v870z" />
    <glyph glyph-name="L" unicode="L" horiz-adv-x="600" 
d="M-200 500h200v970l-200 230l400 -60v-1290q300 -390 515 -495t385 -75q-180 -280 -475.5 -106t-824.5 826z" />
    <glyph glyph-name="M" unicode="M" horiz-adv-x="1100" 
d="M200 100l-200 -200v700l-200 200h200v670l-200 230l699 -100l501 72v-1772l-200 200v1342l-200 -28v-1314l-200 200v1114l-200 28v-1342z" />
    <glyph glyph-name="N" unicode="N" 
d="M800 1200v-1200h-200v1200q0 83 -58.5 141.5t-141.5 58.5t-141.5 -58.5t-58.5 -141.5v-1100l-200 -200v1300q0 166 117 283t283 117t283 -117t117 -283z" />
    <glyph glyph-name="O" unicode="O" 
d="M200 1200v-800q0 -83 58.5 -141.5t141.5 -58.5t141.5 58.5t58.5 141.5v800q0 83 -58.5 141.5t-141.5 58.5t-141.5 -58.5t-58.5 -141.5zM0 400v800q0 166 117 283t283 117t283 -117t117 -283v-800q0 -166 -117 -283t-283 -117t-283 117t-117 283z" />
    <glyph glyph-name="P" unicode="P" 
d="M0 600v870l-200 230l600 -90q166 -10 283 -127t117 -283v-400q0 -166 -117 -283t-283 -117h-200v-300l-200 -200v500l-200 200h200zM200 1440v-840h200q83 0 141.5 58.5t58.5 141.5v400q0 83 -58.5 141.5t-141.5 68.5z" />
    <glyph glyph-name="Q" unicode="Q" 
d="M200 1200v-800q0 -83 58.5 -141.5t141.5 -58.5q27 0 51 6q-94 115 -191 254h240q47 -63 92 -118q8 27 8 58v800q0 83 -58.5 141.5t-141.5 58.5t-141.5 -58.5t-58.5 -141.5zM0 400v800q0 166 117 283t283 117t283 -117t117 -283v-800q0 -125 -66 -222q155 -166 281 -233
q215 -115 385 -85q-180 -280 -485 -90q-157 98 -325 277q-85 -47 -190 -47q-166 0 -283 117t-117 283z" />
    <glyph glyph-name="R" unicode="R" 
d="M0 600v870l-200 230l600 -90q166 -10 283 -127t117 -283v-400q0 -166 -117 -283q-68 -68 -153 -97q281 -366 485 -475q215 -115 385 -85q-180 -280 -485 -90q-286 178 -612 630h-103v-300l-200 -200v500l-200 200h200zM200 1440v-840h200q83 0 141.5 58.5t58.5 141.5v400
q0 83 -58.5 141.5t-141.5 68.5z" />
    <glyph glyph-name="S" unicode="S" 
d="M800 1200l-200 -200v200q0 83 -58.5 141.5t-141.5 58.5t-141.5 -58.5t-58.5 -141.5q0 -160 300 -345t300 -455q0 -166 -117 -283t-283 -117t-283 117t-117 283l200 200v-200q0 -83 58.5 -141.5t141.5 -58.5t141.5 58.5t58.5 141.5q0 160 -300 345t-300 455q0 166 117 283
t283 117t283 -117t117 -283z" />
    <glyph glyph-name="T" unicode="T" horiz-adv-x="300" 
d="M200 1422v-1522l-200 200v1320q-200 6 -442 41l164 175q497 -55 728 23t326 223q81 -323 -266 -415q-136 -37 -310 -45z" />
    <glyph glyph-name="U" unicode="U" 
d="M0 400v1200h200v-1200q0 -83 58.5 -141.5t141.5 -58.5t141.5 58.5t58.5 141.5v1100l200 200v-1300q0 -166 -117 -283t-283 -117t-283 117t-117 283z" />
    <glyph glyph-name="V" unicode="V" 
d="M600 450v1050l200 200v-1250q0 -166 -117 -283t-283 -217q-166 100 -283 217t-117 283v1150h200v-1150q0 -83 58.5 -141.5t141.5 -118.5q83 60 141.5 118.5t58.5 141.5z" />
    <glyph glyph-name="W" unicode="W" horiz-adv-x="1100" 
d="M0 1000v700l200 -200v-1342l200 28v1114l200 200v-1314l200 -28v1342l200 200v-1772l-501 72l-699 -100l200 230v670h-200z" />
    <glyph glyph-name="X" unicode="X" 
d="M1 500q0 166 117 283q8 8 17 16q-9 8 -18 17q-117 117 -117 283v500h200v-500q0 -83 59 -141q52 -53 124 -58h35q71 5 124 58q58 58 58 141v600l200 -200v-400q0 -166 -117 -283q-8 -8 -17 -16q9 -8 18 -17q117 -117 117 -283v-500h-200v500q0 83 -58 142q-53 52 -125 57
h-35q-71 -5 -123 -57q-59 -59 -59 -142v-600l-200 200v400z" />
    <glyph glyph-name="Y" unicode="Y" 
d="M0 400v1200h200v-1200q0 -83 58.5 -141.5t141.5 -58.5t141.5 58.5t58.5 141.5v1100l200 200v-1900q0 -166 -117 -283t-283 -117t-283 117q-54 54 -83 117l166 166q0 -83 58.5 -141.5t141.5 -58.5t141.5 58.5t58.5 141.5v252q-89 -52 -200 -52q-166 0 -283 117t-117 283z
" />
    <glyph glyph-name="Z" unicode="Z" 
d="M500 1410l-500 60l-200 230l1000 -100l-550 -1399l550 -1v-200h-850z" />
    <glyph glyph-name="bracketleft" unicode="[" horiz-adv-x="500" 
d="M0 1300q0 166 117 283t283 117v-200q-83 0 -141.5 -58.5t-58.5 -141.5v-1000q0 -83 58.5 -141.5t141.5 -58.5v-200q-166 0 -283 117t-117 283v1000z" />
    <glyph glyph-name="backslash" unicode="\" horiz-adv-x="800" 
d="M600 -10l-750 1810l300 -201l750 -1799z" />
    <glyph glyph-name="bracketright" unicode="]" horiz-adv-x="500" 
d="M400 1300v-1000q0 -166 -117 -283t-283 -117v200q83 0 141.5 58.5t58.5 141.5v1000q0 83 -58.5 141.5t-141.5 58.5v200q166 0 283 -117t117 -283z" />
    <glyph glyph-name="asciicircum" unicode="^" horiz-adv-x="300" 
d="M0 1600l100 100l100 -100q0 -400 -100 -600q-100 200 -100 600z" />
    <glyph glyph-name="underscore" unicode="_" horiz-adv-x="800" 
d="M700 0h-700l-200 200h900v-200z" />
    <glyph glyph-name="grave" unicode="`" horiz-adv-x="300" 
d="M0 1600l100 100l100 -100q0 -400 -100 -600q-100 200 -100 600z" />
    <glyph glyph-name="a" unicode="a" 
d="M200 600v-200q0 -83 58.5 -141.5t141.5 -58.5t141.5 58.5t58.5 141.5v200q0 83 -58.5 141.5t-141.5 58.5t-141.5 -58.5t-58.5 -141.5zM0 400v200q0 166 117 283t283 117t283 -117t117 -283v-500l-200 -200v152q-89 -52 -200 -52q-166 0 -283 117t-117 283z" />
    <glyph glyph-name="b" unicode="b" 
d="M200 800l200 200q166 0 283 -117t117 -283v-200q0 -166 -117 -283t-283 -117t-283 117t-117 283v1100l200 200v-900zM200 800v-400q0 -83 58.5 -141.5t141.5 -58.5t141.5 58.5t58.5 141.5v200q0 83 -58.5 141.5t-141.5 58.5h-200z" />
    <glyph glyph-name="c" unicode="c" 
d="M0 600q0 166 117 283t283 117t283 -117l117 -117l-200 -166q0 83 -58 142q-59 58 -142 58t-141.5 -58.5t-58.5 -141.5v-200q0 -83 58.5 -141.5t141.5 -58.5t142 58q58 59 58 142l200 -166l-117 -117q-117 -117 -283 -117t-283 117t-117 283v200z" />
    <glyph glyph-name="d" unicode="d" 
d="M600 800h-200q-83 0 -141.5 -58.5t-58.5 -141.5v-200q0 -83 58.5 -141.5t141.5 -58.5t141.5 58.5t58.5 141.5v400zM600 800v900l200 -200v-1100q0 -166 -117 -283t-283 -117t-283 117t-117 283v200q0 166 117 283t283 117z" />
    <glyph glyph-name="e" unicode="e" 
d="M200 600h400q0 83 -58.5 141.5t-141.5 58.5t-141.5 -58.5t-58.5 -141.5zM200 400q0 -83 58.5 -141.5t141.5 -58.5t136.5 3.5t53.5 86.5l150 -206q-174 -84 -340 -84t-283 117t-117 283v200q0 166 117 283t283 117t283 -117t117 -283v-200h-400l-200 200v-200z" />
    <glyph glyph-name="f" unicode="f" horiz-adv-x="700" 
d="M200 623v-623h-200v641q-104 15 -222 40l164 175q30 -6 58 -10v354q0 166 117 283t283 117t283 -117q54 -54 83 -117l-166 -166q0 83 -58.5 141.5t-141.5 58.5t-141.5 -58.5t-58.5 -141.5v-378q105 -7 170 7q131 28 226 113q81 -263 -166 -305q-102 -18 -230 -14z" />
    <glyph glyph-name="g" unicode="g" 
d="M600 200v400q0 83 -58.5 141.5t-141.5 58.5t-141.5 -58.5t-58.5 -141.5v-200q0 -83 58.5 -141.5t141.5 -58.5h200zM800 -200q0 -166 -117 -283t-283 -117t-283 117q-54 54 -83 117l166 166q0 -83 58.5 -141.5t141.5 -58.5t141.5 58.5t58.5 141.5v400l-200 -200
q-166 0 -283 117t-117 283v200q0 166 117 283t283 117t283 -117t117 -283v-800z" />
    <glyph glyph-name="h" unicode="h" 
d="M200 0h-200v1600h200v-1600zM800 600v-700l-200 200v500q0 83 -58.5 141.5t-141.5 58.5h-200l200 200q166 0 283 -117t117 -283z" />
    <glyph glyph-name="i" unicode="i" horiz-adv-x="300" 
d="M200 -100l-200 200v900h200v-1100zM200 1200h-200v200h200v-200z" />
    <glyph glyph-name="j" unicode="j" horiz-adv-x="300" 
d="M200 1200h-200v200h200v-200zM200 -200q0 -166 -117 -283t-283 -117t-283 117q-54 54 -83 117l166 166q0 -83 58.5 -141.5t141.5 -58.5t141.5 58.5t58.5 141.5v1200h200v-1200z" />
    <glyph glyph-name="k" unicode="k" 
d="M800 0v-500l-200 200v300q0 83 -58.5 141.5t-141.5 58.5h-200v-200h-200v1500l200 200v-752q89 52 200 52q166 0 283 -117t117 -283t-117 -283q-9 -9 -18 -17q9 -8 18 -17q117 -117 117 -283zM200 200l200 200q83 0 141.5 58.5t58.5 141.5t-58.5 141.5t-141.5 58.5
t-141.5 -58.5t-58.5 -141.5v-400z" />
    <glyph glyph-name="l" unicode="l" horiz-adv-x="300" 
d="M0 0v1500l200 200v-1700h-200z" />
    <glyph glyph-name="m" unicode="m" horiz-adv-x="1100" 
d="M600 700v-700h-200v700q0 41 -29.5 70.5t-70.5 29.5t-70.5 -29.5t-29.5 -70.5v-700h-200v700q0 124 88 212t212 88q116 0 200 -76q85 76 200 76q125 0 212.5 -88t87.5 -212v-800l-200 200v600q0 41 -29.5 70.5t-70.5 29.5t-70.5 -29.5t-29.5 -70.5z" />
    <glyph glyph-name="n" unicode="n" 
d="M800 600v-700l-200 200v500q0 83 -58.5 141.5t-141.5 58.5t-141.5 -58.5t-58.5 -141.5v-600h-200v600q0 166 117 283t283 117t283 -117t117 -283z" />
    <glyph glyph-name="o" unicode="o" 
d="M200 600v-200q0 -83 58.5 -141.5t141.5 -58.5t141.5 58.5t58.5 141.5v200q0 83 -58.5 141.5t-141.5 58.5t-141.5 -58.5t-58.5 -141.5zM0 400v200q0 166 117 283t283 117t283 -117t117 -283v-200q0 -166 -117 -283t-283 -117t-283 117t-117 283z" />
    <glyph glyph-name="p" unicode="p" 
d="M200 600v-200q0 -83 58.5 -141.5t141.5 -58.5t141.5 58.5t58.5 141.5v200q0 83 -58.5 141.5t-141.5 58.5t-141.5 -58.5t-58.5 -141.5zM0 600q0 166 117 283t283 117t283 -117t117 -283v-200q0 -166 -117 -283t-283 -117q-111 0 -200 52v-452l-200 -200v1200z" />
    <glyph glyph-name="q" unicode="q" 
d="M600 200l-200 -200q-166 0 -283 117t-117 283v200q0 166 117 283t283 117t283 -117t117 -283v-1000l-200 -200v800zM600 200v400q0 83 -58.5 141.5t-141.5 58.5t-141.5 -58.5t-58.5 -141.5v-200q0 -83 58.5 -141.5t141.5 -58.5h200z" />
    <glyph glyph-name="r" unicode="r" horiz-adv-x="700" 
d="M200 600v-600h-200v600q0 166 117 283t283 117l200 -200h-200q-83 0 -141.5 -58.5t-58.5 -141.5z" />
    <glyph glyph-name="s" unicode="s" horiz-adv-x="800" 
d="M350 0q-116 0 -348 109l100 171q165 -80 248 -80q150 0 150 75t-250 150t-250 325t350 250v1q115 0 342 -106l-194 -130q-92 36 -148 36v-1q-150 0 -150 -75t250 -150t250 -325t-350 -250z" />
    <glyph glyph-name="t" unicode="t" horiz-adv-x="300" 
d="M0 1235v365h200v-364q150 9 250 43q231 78 326 223q81 -323 -266 -415q-136 -37 -310 -45v-1042h-200v1040q-200 6 -442 41l164 175q151 -17 278 -21z" />
    <glyph glyph-name="u" unicode="u" 
d="M600 400v500l200 200v-700q0 -166 -117 -283t-283 -117t-283 117t-117 283v600h200v-600q0 -83 58.5 -141.5t141.5 -58.5t141.5 58.5t58.5 141.5z" />
    <glyph glyph-name="v" unicode="v" 
d="M600 450v450l200 200v-650q0 -166 -117 -283t-283 -217q-166 100 -283 217t-117 283v550h200v-550q0 -83 58.5 -141.5t141.5 -118.5q83 60 141.5 118.5t58.5 141.5z" />
    <glyph glyph-name="w" unicode="w" horiz-adv-x="1100" 
d="M800 999h200v-700q0 -123 -88 -211t-212 -88q-116 0 -200 76q-85 -76 -200 -76q-125 0 -212.5 88t-87.5 212v800l200 -200v-600q0 -41 29.5 -70.5t70.5 -29.5t70.5 29.5t29.5 70.5v699h200v-699q0 -41 29.5 -70.5t70.5 -29.5t70.5 29.5t29.5 70.5v699z" />
    <glyph glyph-name="x" unicode="x" 
d="M600 800v100l200 200v-300q0 -166 -117 -283q-9 -9 -18 -17q9 -8 18 -17q117 -117 117 -283v-200h-200v200q0 83 -58.5 141.5t-141.5 58.5t-141.5 -58.5t-58.5 -141.5v-100l-200 -200v300q0 166 117 283q9 9 18 17q-9 8 -18 17q-117 117 -117 283v200h200v-200
q0 -83 58.5 -141.5t141.5 -58.5t141.5 58.5t58.5 141.5z" />
    <glyph glyph-name="y" unicode="y" horiz-adv-x="800" 
d="M700 -200q0 -166 -117 -283t-283 -117t-283 117q-54 54 -83 117l166 166q0 -83 58.5 -141.5t141.5 -58.5t141.5 58.5t58.5 141.5v300l-100 -100q-166 0 -283 117t-117 283v600h200v-600q0 -83 58.5 -141.5t141.5 -58.5h100v700l200 200v-1300z" />
    <glyph glyph-name="z" unicode="z" 
d="M600 600q0 83 -58.5 141.5t-141.5 58.5t-141 -58q-59 -59 -59 -142l-200 166l117 117q117 117 283 117t283 -117t117 -283t-117 -283q-9 -9 -18 -17q9 -8 18 -17q117 -117 117 -283t-117 -283t-283 -117t-283 117l-117 117l200 166q0 -83 58 -142q59 -58 142 -58
t141.5 58.5t58.5 141.5t-58.5 141.5t-141.5 58.5h-100l-200 200h300q83 0 141.5 58.5t58.5 141.5z" />
    <glyph glyph-name="braceleft" unicode="{" horiz-adv-x="500" 
d="M0 1300q0 166 117 283t283 117v-200q-83 0 -141.5 -58.5t-58.5 -141.5v-1000q0 -83 58.5 -141.5t141.5 -58.5v-200q-166 0 -283 117t-117 283v1000z" />
    <glyph glyph-name="bar" unicode="|" horiz-adv-x="300" 
d="M0 1600h200v-1700l-200 200v1500z" />
    <glyph glyph-name="braceright" unicode="}" horiz-adv-x="500" 
d="M400 1300v-1000q0 -166 -117 -283t-283 -117v200q83 0 141.5 58.5t58.5 141.5v1000q0 83 -58.5 141.5t-141.5 58.5v200q166 0 283 -117t117 -283z" />
    <glyph glyph-name="asciitilde" unicode="~" horiz-adv-x="800" 
d="M0 600v200h800l-200 -200h-600z" />
  </font>
</defs>
</svg>
